<svg width="1391" height="52" viewBox="0 0 1391 52" fill="none" xmlns="http://www.w3.org/2000/svg">
<path d="M18 48V28H30V48M6 22L24 8L42 22V44C42 45.0609 41.5786 46.0783 40.8284 46.8284C40.0783 47.5786 39.0609 48 38 48H10C8.93913 48 7.92172 47.5786 7.17157 46.8284C6.42143 46.0783 6 45.0609 6 44V22Z" stroke="#757575" stroke-width="4" stroke-linecap="round" stroke-linejoin="round"/>
<path d="M1311 42L1302.3 33.3M1307 22C1307 30.8366 1299.84 38 1291 38C1282.16 38 1275 30.8366 1275 22C1275 13.1634 1282.16 6 1291 6C1299.84 6 1307 13.1634 1307 22Z" stroke="#757575" stroke-width="4" stroke-linecap="round" stroke-linejoin="round"/>
<path d="M1383.17 42V38C1383.17 35.8783 1382.34 33.8434 1380.87 32.3431C1379.4 30.8429 1377.41 30 1375.33 30H1359.67C1357.59 30 1355.6 30.8429 1354.13 32.3431C1352.66 33.8434 1351.83 35.8783 1351.83 38V42M1375.33 14C1375.33 18.4183 1371.83 22 1367.5 22C1363.17 22 1359.67 18.4183 1359.67 14C1359.67 9.58172 1363.17 6 1367.5 6C1371.83 6 1375.33 9.58172 1375.33 14Z" stroke="#757575" stroke-width="4" stroke-linecap="round" stroke-linejoin="round"/>
<g opacity="0.5">
<path d="M1191 6H1199L1204.36 32.78C1204.54 33.7008 1205.04 34.5279 1205.78 35.1166C1206.51 35.7053 1207.42 36.018 1208.36 36H1227.8C1228.74 36.018 1229.65 35.7053 1230.38 35.1166C1231.12 34.5279 1231.62 33.7008 1231.8 32.78L1235 16H1201M1209 46C1209 47.1046 1208.1 48 1207 48C1205.9 48 1205 47.1046 1205 46C1205 44.8954 1205.9 44 1207 44C1208.1 44 1209 44.8954 1209 46ZM1231 46C1231 47.1046 1230.1 48 1229 48C1227.9 48 1227 47.1046 1227 46C1227 44.8954 1227.9 44 1229 44C1230.1 44 1231 44.8954 1231 46Z" stroke="#1E1E1E" stroke-width="4" stroke-linecap="round" stroke-linejoin="round"/>
</g>
<path d="M1142.68 13.2197C1141.66 12.1978 1140.45 11.387 1139.11 10.8339C1137.78 10.2808 1136.35 9.99609 1134.9 9.99609C1133.46 9.99609 1132.02 10.2808 1130.69 10.8339C1129.35 11.387 1128.14 12.1978 1127.12 13.2197L1125 15.3397L1122.88 13.2197C1120.82 11.1564 1118.02 9.99716 1115.1 9.99716C1112.18 9.99716 1109.38 11.1564 1107.32 13.2197C1105.26 15.2831 1104.1 18.0817 1104.1 20.9997C1104.1 23.9178 1105.26 26.7164 1107.32 28.7797L1125 46.4597L1142.68 28.7797C1143.7 27.7582 1144.51 26.5454 1145.07 25.2105C1145.62 23.8755 1145.9 22.4447 1145.9 20.9997C1145.9 19.5548 1145.62 18.124 1145.07 16.789C1144.51 15.4541 1143.7 14.2413 1142.68 13.2197Z" stroke="#1E1E1E" stroke-width="4" stroke-linecap="round" stroke-linejoin="round"/>
</svg>
