<svg width="1394" height="52" viewBox="0 0 1394 52" fill="none" xmlns="http://www.w3.org/2000/svg">
<path d="M18 48V28H30V48M6 22L24 8L42 22V44C42 45.0609 41.5786 46.0783 40.8284 46.8284C40.0783 47.5786 39.0609 48 38 48H10C8.93913 48 7.92172 47.5786 7.17157 46.8284C6.42143 46.0783 6 45.0609 6 44V22Z" stroke="#757575" stroke-width="4" stroke-linecap="round" stroke-linejoin="round"/>
<path d="M1320 44L1311.3 35.3M1316 24C1316 32.8366 1308.84 40 1300 40C1291.16 40 1284 32.8366 1284 24C1284 15.1634 1291.16 8 1300 8C1308.84 8 1316 15.1634 1316 24Z" stroke="#757575" stroke-width="4" stroke-linecap="round" stroke-linejoin="round"/>
<path d="M1386.17 44V40C1386.17 37.8783 1385.34 35.8434 1383.87 34.3431C1382.4 32.8429 1380.41 32 1378.33 32H1362.67C1360.59 32 1358.6 32.8429 1357.13 34.3431C1355.66 35.8434 1354.83 37.8783 1354.83 40V44M1378.33 16C1378.33 20.4183 1374.83 24 1370.5 24C1366.17 24 1362.67 20.4183 1362.67 16C1362.67 11.5817 1366.17 8 1370.5 8C1374.83 8 1378.33 11.5817 1378.33 16Z" stroke="#757575" stroke-width="4" stroke-linecap="round" stroke-linejoin="round"/>
<g opacity="0.5">
<path d="M1201 3H1209L1214.36 29.78C1214.54 30.7008 1215.04 31.5279 1215.78 32.1166C1216.51 32.7053 1217.42 33.018 1218.36 33H1237.8C1238.74 33.018 1239.65 32.7053 1240.38 32.1166C1241.12 31.5279 1241.62 30.7008 1241.8 29.78L1245 13H1211M1219 43C1219 44.1046 1218.1 45 1217 45C1215.9 45 1215 44.1046 1215 43C1215 41.8954 1215.9 41 1217 41C1218.1 41 1219 41.8954 1219 43ZM1241 43C1241 44.1046 1240.1 45 1239 45C1237.9 45 1237 44.1046 1237 43C1237 41.8954 1237.9 41 1239 41C1240.1 41 1241 41.8954 1241 43Z" stroke="#1E1E1E" stroke-width="4" stroke-linecap="round" stroke-linejoin="round"/>
</g>
<path d="M1150.68 9.21975C1149.66 8.19775 1148.45 7.38704 1147.11 6.83391C1145.78 6.28079 1144.35 5.99609 1142.9 5.99609C1141.46 5.99609 1140.02 6.28079 1138.69 6.83391C1137.35 7.38704 1136.14 8.19775 1135.12 9.21975L1133 11.3397L1130.88 9.21975C1128.82 7.15636 1126.02 5.99716 1123.1 5.99716C1120.18 5.99716 1117.38 7.15636 1115.32 9.21975C1113.26 11.2831 1112.1 14.0817 1112.1 16.9997C1112.1 19.9178 1113.26 22.7164 1115.32 24.7797L1133 42.4597L1150.68 24.7797C1151.7 23.7582 1152.51 22.5454 1153.07 21.2105C1153.62 19.8755 1153.9 18.4447 1153.9 16.9997C1153.9 15.5548 1153.62 14.124 1153.07 12.789C1152.51 11.4541 1151.7 10.2413 1150.68 9.21975Z" stroke="#1E1E1E" stroke-width="4" stroke-linecap="round" stroke-linejoin="round"/>
</svg>
