<svg width="1398" height="52" viewBox="0 0 1398 52" fill="none" xmlns="http://www.w3.org/2000/svg">
<path d="M18 44V24H30V44M6 18L24 4L42 18V40C42 41.0609 41.5786 42.0783 40.8284 42.8284C40.0783 43.5786 39.0609 44 38 44H10C8.93913 44 7.92172 43.5786 7.17157 42.8284C6.42143 42.0783 6 41.0609 6 40V18Z" stroke="#757575" stroke-width="4" stroke-linecap="round" stroke-linejoin="round"/>
<path d="M1320 46L1311.3 37.3M1316 26C1316 34.8366 1308.84 42 1300 42C1291.16 42 1284 34.8366 1284 26C1284 17.1634 1291.16 10 1300 10C1308.84 10 1316 17.1634 1316 26Z" stroke="#757575" stroke-width="4" stroke-linecap="round" stroke-linejoin="round"/>
<path d="M1390.17 46V42C1390.17 39.8783 1389.34 37.8434 1387.87 36.3431C1386.4 34.8429 1384.41 34 1382.33 34H1366.67C1364.59 34 1362.6 34.8429 1361.13 36.3431C1359.66 37.8434 1358.83 39.8783 1358.83 42V46M1382.33 18C1382.33 22.4183 1378.83 26 1374.5 26C1370.17 26 1366.67 22.4183 1366.67 18C1366.67 13.5817 1370.17 10 1374.5 10C1378.83 10 1382.33 13.5817 1382.33 18Z" stroke="#757575" stroke-width="4" stroke-linecap="round" stroke-linejoin="round"/>
<g opacity="0.5">
<path d="M1192 6H1200L1205.36 32.78C1205.54 33.7008 1206.04 34.5279 1206.78 35.1166C1207.51 35.7053 1208.42 36.018 1209.36 36H1228.8C1229.74 36.018 1230.65 35.7053 1231.38 35.1166C1232.12 34.5279 1232.62 33.7008 1232.8 32.78L1236 16H1202M1210 46C1210 47.1046 1209.1 48 1208 48C1206.9 48 1206 47.1046 1206 46C1206 44.8954 1206.9 44 1208 44C1209.1 44 1210 44.8954 1210 46ZM1232 46C1232 47.1046 1231.1 48 1230 48C1228.9 48 1228 47.1046 1228 46C1228 44.8954 1228.9 44 1230 44C1231.1 44 1232 44.8954 1232 46Z" stroke="#1E1E1E" stroke-width="4" stroke-linecap="round" stroke-linejoin="round"/>
</g>
<path d="M1142.68 12.2197C1141.66 11.1978 1140.45 10.387 1139.11 9.83391C1137.78 9.28079 1136.35 8.99609 1134.9 8.99609C1133.46 8.99609 1132.02 9.28079 1130.69 9.83391C1129.35 10.387 1128.14 11.1978 1127.12 12.2197L1125 14.3397L1122.88 12.2197C1120.82 10.1564 1118.02 8.99716 1115.1 8.99716C1112.18 8.99716 1109.38 10.1564 1107.32 12.2197C1105.26 14.2831 1104.1 17.0817 1104.1 19.9997C1104.1 22.9178 1105.26 25.7164 1107.32 27.7797L1125 45.4597L1142.68 27.7797C1143.7 26.7582 1144.51 25.5454 1145.07 24.2105C1145.62 22.8755 1145.9 21.4447 1145.9 19.9997C1145.9 18.5548 1145.62 17.124 1145.07 15.789C1144.51 14.4541 1143.7 13.2413 1142.68 12.2197Z" stroke="#1E1E1E" stroke-width="4" stroke-linecap="round" stroke-linejoin="round"/>
</svg>
