<svg width="41" height="29" viewBox="0 0 41 29" fill="none" xmlns="http://www.w3.org/2000/svg">
<g clip-path="url(#clip0_144_1384)">
<rect width="40" height="28.139" transform="translate(0.229492 0.682617)" fill="white"/>
<path d="M29.3958 8.3034H29.4125M11.8958 3.02734H28.5625C33.1649 3.02734 36.8958 5.65198 36.8958 8.88963V20.6142C36.8958 23.8519 33.1649 26.4765 28.5625 26.4765H11.8958C7.29346 26.4765 3.5625 23.8519 3.5625 20.6142V8.88963C3.5625 5.65198 7.29346 3.02734 11.8958 3.02734ZM26.8958 14.0133C27.1015 14.989 26.8646 15.9856 26.2188 16.8612C25.5729 17.7368 24.5511 18.4468 23.2985 18.8903C22.046 19.3338 20.6266 19.4882 19.2421 19.3315C17.8577 19.1747 16.5788 18.7149 15.5872 18.0174C14.5957 17.3199 13.9421 16.4202 13.7193 15.4463C13.4965 14.4724 13.7159 13.4738 14.3464 12.5927C14.9768 11.7116 15.9861 10.9927 17.2308 10.5384C18.4755 10.0841 19.8921 9.9174 21.2792 10.0621C22.694 10.2097 24.0039 10.6735 25.0153 11.385C26.0267 12.0965 26.686 13.0179 26.8958 14.0133Z" stroke="#1E1E1E" stroke-width="3.30132" stroke-linecap="round" stroke-linejoin="round"/>
</g>
<defs>
<clipPath id="clip0_144_1384">
<rect width="40" height="28.139" fill="white" transform="translate(0.229492 0.682617)"/>
</clipPath>
</defs>
</svg>
