<svg width="41" height="35" viewBox="0 0 41 35" fill="none" xmlns="http://www.w3.org/2000/svg">
<rect width="40" height="33.4676" transform="translate(0.229492 0.606445)" fill="white"/>
<path d="M29.3958 9.67069H29.4125M11.8958 3.39551H28.5625C33.1649 3.39551 36.8958 6.51717 36.8958 10.3679V24.3128C36.8958 28.1635 33.1649 31.2852 28.5625 31.2852H11.8958C7.29346 31.2852 3.5625 28.1635 3.5625 24.3128V10.3679C3.5625 6.51717 7.29346 3.39551 11.8958 3.39551ZM26.8958 16.4618C27.1015 17.6224 26.8646 18.8077 26.2188 19.8491C25.5729 20.8905 24.5511 21.735 23.2985 22.2624C22.046 22.7899 20.6266 22.9735 19.2421 22.7871C17.8577 22.6007 16.5788 22.0538 15.5872 21.2242C14.5957 20.3946 13.9421 19.3245 13.7193 18.1662C13.4965 17.0078 13.7159 15.8202 14.3464 14.7722C14.9768 13.7243 15.9861 12.8693 17.2308 12.3289C18.4755 11.7886 19.8921 11.5903 21.2792 11.7624C22.694 11.938 24.0039 12.4896 25.0153 13.3358C26.0267 14.1821 26.686 15.278 26.8958 16.4618Z" stroke="#1E1E1E" stroke-width="3.30132" stroke-linecap="round" stroke-linejoin="round"/>
</svg>
