<svg width="52" height="40" viewBox="0 0 52 40" fill="none" xmlns="http://www.w3.org/2000/svg">
<rect width="50.3056" height="39.5442" transform="translate(0.716797 0.0615234)" fill="white"/>
<path d="M37.3982 10.772H37.4191M15.3895 3.35742H36.3502C42.1383 3.35742 46.8305 7.04586 46.8305 11.5958V28.0725C46.8305 32.6224 42.1383 36.3109 36.3502 36.3109H15.3895C9.60138 36.3109 4.90918 32.6224 4.90918 28.0725V11.5958C4.90918 7.04586 9.60138 3.35742 15.3895 3.35742ZM34.2541 18.7961C34.5128 20.1674 34.2148 21.5679 33.4026 22.7983C32.5904 24.0288 31.3052 25.0267 29.73 25.6499C28.1548 26.2732 26.3696 26.4901 24.6285 26.2699C22.8874 26.0496 21.2789 25.4034 20.0319 24.4232C18.785 23.443 17.9629 22.1786 17.6827 20.8099C17.4026 19.4413 17.6785 18.038 18.4714 16.7998C19.2643 15.5615 20.5336 14.5513 22.099 13.9128C23.6643 13.2743 25.4459 13.0401 27.1903 13.2435C28.9697 13.4509 30.6171 14.1027 31.8891 15.1025C33.1611 16.1024 33.9902 17.3974 34.2541 18.7961Z" stroke="#1E1E1E" stroke-width="3.30132" stroke-linecap="round" stroke-linejoin="round"/>
</svg>
