<svg width="51" height="40" viewBox="0 0 51 40" fill="none" xmlns="http://www.w3.org/2000/svg">
<rect width="50.3056" height="39.5442" transform="translate(0.411133 0.0615234)" fill="white"/>
<path d="M33.9484 13.2435C37.2839 13.2435 40.4827 14.285 42.8413 16.139C45.1998 17.993 46.5248 20.5076 46.5248 23.1295V34.6632H38.1406V23.1295C38.1406 22.2555 37.6989 21.4173 36.9127 20.7993C36.1265 20.1813 35.0602 19.8342 33.9484 19.8342C32.8366 19.8342 31.7703 20.1813 30.9841 20.7993C30.198 21.4173 29.7563 22.2555 29.7563 23.1295V34.6632H21.372V23.1295C21.372 20.5076 22.697 17.993 25.0556 16.139C27.4141 14.285 30.613 13.2435 33.9484 13.2435Z" stroke="#1E1E1E" stroke-width="3.30132" stroke-linecap="round" stroke-linejoin="round"/>
<path d="M12.9878 14.8911H4.60352V34.6632H12.9878V14.8911Z" stroke="#1E1E1E" stroke-width="3.30132" stroke-linecap="round" stroke-linejoin="round"/>
<path d="M8.79565 9.94811C11.1109 9.94811 12.9878 8.47274 12.9878 6.65277C12.9878 4.8328 11.1109 3.35742 8.79565 3.35742C6.4804 3.35742 4.60352 4.8328 4.60352 6.65277C4.60352 8.47274 6.4804 9.94811 8.79565 9.94811Z" stroke="#1E1E1E" stroke-width="3.30132" stroke-linecap="round" stroke-linejoin="round"/>
</svg>
