<svg width="41" height="35" viewBox="0 0 41 35" fill="none" xmlns="http://www.w3.org/2000/svg">
<rect width="40" height="33.4676" transform="translate(0.230469 0.606445)" fill="white"/>
<path d="M26.8968 11.7624C29.549 11.7624 32.0925 12.6439 33.9679 14.213C35.8432 15.7821 36.8968 17.9103 36.8968 20.1293V29.8907H30.2301V20.1293C30.2301 19.3896 29.879 18.6803 29.2538 18.1572C28.6287 17.6342 27.7809 17.3404 26.8968 17.3404C26.0128 17.3404 25.1649 17.6342 24.5398 18.1572C23.9147 18.6803 23.5635 19.3896 23.5635 20.1293V29.8907H16.8968V20.1293C16.8968 17.9103 17.9504 15.7821 19.8257 14.213C21.7011 12.6439 24.2446 11.7624 26.8968 11.7624Z" stroke="#1E1E1E" stroke-width="3.30132" stroke-linecap="round" stroke-linejoin="round"/>
<path d="M10.2301 13.1569H3.56348V29.8907H10.2301V13.1569Z" stroke="#1E1E1E" stroke-width="3.30132" stroke-linecap="round" stroke-linejoin="round"/>
<path d="M6.89681 8.97345C8.73776 8.97345 10.2301 7.72478 10.2301 6.18448C10.2301 4.64417 8.73776 3.39551 6.89681 3.39551C5.05586 3.39551 3.56348 4.64417 3.56348 6.18448C3.56348 7.72478 5.05586 8.97345 6.89681 8.97345Z" stroke="#1E1E1E" stroke-width="3.30132" stroke-linecap="round" stroke-linejoin="round"/>
</svg>
