<svg width="41" height="29" viewBox="0 0 41 29" fill="none" xmlns="http://www.w3.org/2000/svg">
<rect width="40" height="28.139" transform="translate(0.230469 0.682617)" fill="white"/>
<path d="M26.8968 10.0621C29.549 10.0621 32.0925 10.8032 33.9679 12.1225C35.8432 13.4418 36.8968 15.2311 36.8968 17.0968V25.304H30.2301V17.0968C30.2301 16.4749 29.879 15.8785 29.2538 15.4387C28.6287 14.999 27.7809 14.7519 26.8968 14.7519C26.0128 14.7519 25.1649 14.999 24.5398 15.4387C23.9147 15.8785 23.5635 16.4749 23.5635 17.0968V25.304H16.8968V17.0968C16.8968 15.2311 17.9504 13.4418 19.8257 12.1225C21.7011 10.8032 24.2446 10.0621 26.8968 10.0621Z" stroke="#1E1E1E" stroke-width="3.30132" stroke-linecap="round" stroke-linejoin="round"/>
<path d="M10.2301 11.2345H3.56348V25.304H10.2301V11.2345Z" stroke="#1E1E1E" stroke-width="3.30132" stroke-linecap="round" stroke-linejoin="round"/>
<path d="M6.89681 7.71718C8.73776 7.71718 10.2301 6.66732 10.2301 5.37226C10.2301 4.0772 8.73776 3.02734 6.89681 3.02734C5.05586 3.02734 3.56348 4.0772 3.56348 5.37226C3.56348 6.66732 5.05586 7.71718 6.89681 7.71718Z" stroke="#1E1E1E" stroke-width="3.30132" stroke-linecap="round" stroke-linejoin="round"/>
</svg>
