<svg width="41" height="35" viewBox="0 0 41 35" fill="none" xmlns="http://www.w3.org/2000/svg">
<g clip-path="url(#clip0_165_1308)">
<rect width="40" height="33.4676" transform="translate(0.229492 0.606445)" fill="white"/>
<path d="M38.5631 4.78941C36.9671 5.73136 35.2 6.45179 33.3298 6.92297C32.326 5.95731 30.992 5.27287 29.5082 4.96223C28.0244 4.65158 26.4623 4.72972 25.0333 5.18608C23.6043 5.64243 22.3772 6.45499 21.5181 7.51384C20.659 8.57269 20.2093 9.82676 20.2298 11.1064V12.5009C17.3009 12.5645 14.3986 12.0209 11.7815 10.9188C9.16439 9.81664 6.91368 8.19005 5.22982 6.1839C5.22982 6.1839 -1.43685 18.7343 13.5631 24.3122C10.1307 26.2616 6.04175 27.2391 1.89648 27.1012C16.8965 34.0736 35.2298 27.1012 35.2298 11.0646C35.2283 10.6762 35.1836 10.2887 35.0965 9.90717C36.7975 8.50361 37.9979 6.73153 38.5631 4.78941Z" stroke="#1E1E1E" stroke-width="3.30132" stroke-linecap="round" stroke-linejoin="round"/>
</g>
<defs>
<clipPath id="clip0_165_1308">
<rect width="40" height="33.4676" fill="white" transform="translate(0.229492 0.606445)"/>
</clipPath>
</defs>
</svg>
