<svg width="51" height="40" viewBox="0 0 51 40" fill="none" xmlns="http://www.w3.org/2000/svg">
<g clip-path="url(#clip0_144_1329)">
<rect width="50.3056" height="39.5442" transform="translate(0.178711 0.0615234)" fill="white"/>
<path d="M48.3888 5.00387C46.3816 6.11684 44.1592 6.96808 41.8072 7.52481C40.5448 6.38382 38.8671 5.57511 37.001 5.20806C35.1348 4.84102 33.1703 4.93335 31.3731 5.47256C29.5759 6.01177 28.0328 6.97186 26.9523 8.22296C25.8719 9.47406 25.3063 10.9558 25.3321 12.4678V14.1155C21.6485 14.1906 17.9985 13.5484 14.7072 12.2461C11.4158 10.9439 8.58521 9.02195 6.46752 6.65155C6.46752 6.65155 -1.91674 21.4806 16.9478 28.0713C12.6311 30.3747 7.48863 31.5297 2.27539 31.3666C21.14 39.605 44.1967 31.3666 44.1967 12.4184C44.1948 11.9594 44.1386 11.5016 44.029 11.0508C46.1683 9.39244 47.6779 7.29861 48.3888 5.00387Z" stroke="#1E1E1E" stroke-width="3.30132" stroke-linecap="round" stroke-linejoin="round"/>
</g>
<defs>
<clipPath id="clip0_144_1329">
<rect width="50.3056" height="39.5442" fill="white" transform="translate(0.178711 0.0615234)"/>
</clipPath>
</defs>
</svg>
