<svg width="41" height="29" viewBox="0 0 41 29" fill="none" xmlns="http://www.w3.org/2000/svg">
<g clip-path="url(#clip0_144_1386)">
<rect width="40" height="28.139" transform="translate(0.229492 0.682617)" fill="white"/>
<path d="M38.5631 4.19929C36.9671 4.99126 35.2 5.59699 33.3298 5.99315C32.326 5.18124 30.992 4.60577 29.5082 4.34459C28.0244 4.0834 26.4623 4.1491 25.0333 4.5328C23.6043 4.9165 22.3772 5.59968 21.5181 6.48994C20.659 7.38021 20.2093 8.4346 20.2298 9.51052V10.683C17.3009 10.7364 14.3986 10.2794 11.7815 9.35277C9.16439 8.42609 6.91368 7.05849 5.22982 5.37175C5.22982 5.37175 -1.43685 15.9239 13.5631 20.6137C10.1307 22.2528 6.04175 23.0746 1.89648 22.9586C16.8965 28.8209 35.2298 22.9586 35.2298 9.47535C35.2283 9.14877 35.1836 8.82299 35.0965 8.50221C36.7975 7.32212 37.9979 5.83219 38.5631 4.19929Z" stroke="#1E1E1E" stroke-width="3.30132" stroke-linecap="round" stroke-linejoin="round"/>
</g>
<defs>
<clipPath id="clip0_144_1386">
<rect width="40" height="28.139" fill="white" transform="translate(0.229492 0.682617)"/>
</clipPath>
</defs>
</svg>
